<svg xmlns="http://www.w3.org/2000/svg" width="114.694" height="132.82" viewBox="0 0 114.69363 132.82001"><defs><clipPath id="a"><path d="M0 106.256h91.755V0H0v106.256z"/></clipPath><clipPath id="b"><path d="M0 160.741h160.741V0H0v160.741z"/></clipPath></defs><g clip-path="url(#a)" transform="matrix(1.25 0 0 -1.25 0 132.82)"><path d="M69.847 21.908c-4.37-4.369-9.724-7.352-15.561-8.848-2.003-.5-4.083-.772-6.18-.913-.298-.018-.578-.07-.875-.074-.454-.022-.898-.092-1.354-.092-1.245 0-2.483.08-3.704.212a33.641 33.641 0 0 0-20.268 9.715c-6.403 6.402-9.933 14.92-9.933 23.972 0 .716.062 1.416.104 2.123.51 8.257 3.93 15.955 9.829 21.851a36.82 36.82 0 0 0 2.284 2.075l.006.003c6.08 5.075 13.664 7.852 21.682 7.852 1.465 0 2.907-.1 4.326-.286a33.832 33.832 0 0 0 12.545-4.236 1.64 1.64 0 0 0 .126-.086c2.51-1.46 4.865-3.217 6.973-5.322.495-.498.944-1.027 1.4-1.549.017-.016.033-.037.052-.056.932-1.062 1.764-2.199 2.553-3.353.502-.75 1.005-1.507 1.446-2.288a33.533 33.533 0 0 0 4.429-15.724c.012-.335.047-.662.047-1.004 0-9.053-3.524-17.57-9.927-23.972m20.386 35.705a45.71 45.71 0 0 1-8.706 17.146l2.638 2.637a4.791 4.791 0 0 1 0 6.774c-1.026 1.028-2.395 1.434-3.734 1.334-1.107-.079-2.201-.492-3.038-1.334l-2.637-2.636c-2.797 2.264-5.875 4.173-9.155 5.735a46.437 46.437 0 0 1-9.341 3.285c-.028.005-.063.005-.096.012a44.214 44.214 0 0 1-4.298.804v2.907h2.118a5.99 5.99 0 0 1 5.987 5.996 5.987 5.987 0 0 1-5.987 5.983H37.409a6.152 6.152 0 0 1-1.528-.215s-.003-.009-.006-.009c-2.563-.678-4.452-2.99-4.452-5.759a5.99 5.99 0 0 1 5.986-5.996h2.482V91.37C24.469 89.36 11.497 79.672 4.835 66.293c-1.33-2.666-2.43-5.464-3.22-8.387A45.56 45.56 0 0 1 0 45.88C0 26.046 12.61 9.19 30.244 2.79 35.13 1.024 40.38 0 45.877 0c2.29 0 4.537.172 6.729.503.234.03.457.098.693.138a45.697 45.697 0 0 1 17.734 6.895 46.022 46.022 0 0 1 16.65 19.518c2.594 5.757 4.072 12.108 4.072 18.826 0 4.054-.531 7.985-1.522 11.733" fill="#dedede" opacity=".5"/></g><g clip-path="url(#b)" transform="matrix(.52762 0 0 -.52762 14.941 117.88)" fill="#d22856"><path d="M80.37 160.74C35.984 160.74 0 124.759 0 80.37 0 35.984 35.983 0 80.37 0c44.388 0 80.37 35.983 80.37 80.37 0 44.388-35.982 80.37-80.37 80.37m0-8c39.906 0 72.37-32.464 72.37-72.37C152.74 40.467 120.277 8 80.37 8 40.467 8 8 40.466 8 80.37c0 39.906 32.466 72.37 72.37 72.37"/></g><path d="M55.402 91.956H32.688v-4.779l8.156-8.246q3.623-3.711 4.734-5.134 1.112-1.444 1.6-2.667.49-1.222.49-2.533 0-1.956-1.09-2.912-1.066-.956-2.867-.956-1.889 0-3.667.867-1.778.867-3.711 2.467l-3.734-4.423q2.4-2.044 3.978-2.889 1.578-.844 3.445-1.289 1.867-.467 4.178-.467 3.045 0 5.379 1.112 2.334 1.11 3.623 3.111 1.289 2 1.289 4.579 0 2.244-.8 4.222-.778 1.956-2.445 4.023-1.645 2.067-5.823 5.89l-4.179 3.934v.311h14.158v5.779zm26.693-6.735h-3.912v6.735h-6.712V85.22H57.602v-4.778l14.248-20.98h6.334v20.425h3.912v5.334zM71.47 79.887v-5.512q0-1.378.111-4 .111-2.623.178-3.045h-.178q-.822 1.822-1.978 3.556l-5.956 9.001h7.823z" style="-inkscape-font-specification:'Open Sans Bold'" font-weight="700" font-size="36.414" font-family="Open Sans" letter-spacing="0" word-spacing="0" fill="#d22856"/></svg>