<svg version="1" xmlns="http://www.w3.org/2000/svg" width="25.988" height="29.922" viewBox="0 0 25.988 29.922"><path fill="#d22856" d="M0 0h25.988v29.922l-12.994-4.811L0 29.922V0zm20.154 17.895c-.241 0-.509-.006-.801-.018-.293-.014-.508-.051-.645-.116a1.03 1.03 0 0 1-.5-.469c-.107-.21-.162-.492-.162-.854 0-.394.018-1.211.055-2.457.035-1.244.054-2.319.054-3.226 0-.858-.146-1.556-.439-2.088a3.052 3.052 0 0 0-1.186-1.223 5.039 5.039 0 0 0-1.758-.572 15.198 15.198 0 0 0-2.143-.139 9.35 9.35 0 0 0-1.83.199 7.412 7.412 0 0 0-1.746.56 4.395 4.395 0 0 0-1.306.885c-.357.357-.536.76-.536 1.209 0 .521.173.946.519 1.271.346.323.857.486 1.533.486.476 0 .827-.043 1.057-.132.229-.089.437-.213.622-.374.138-.12.242-.283.314-.487.072-.205.109-.375.109-.511 0-.306-.057-.622-.169-.952a4.77 4.77 0 0 1-.206-.734c.145-.104.335-.207.572-.308.237-.101.533-.151.886-.151.393 0 .71.089.952.265.241.177.417.393.53.651.104.225.172.501.205.831.032.327.048.593.048.794v1.155c-.467.224-1.207.48-2.22.767-1.013.285-1.881.56-2.604.826-.378.143-.726.3-1.043.471-.317.169-.597.38-.838.639-.265.281-.47.605-.615.969-.145.366-.217.811-.217 1.333 0 .909.329 1.637.989 2.189.658.551 1.455.825 2.388.825.627 0 1.115-.044 1.465-.132.35-.089.714-.223 1.091-.396.29-.138.561-.303.814-.494.253-.193.517-.426.791-.699h.072c.168.546.484.965.949 1.259.465.293 1.19.438 2.176.438.536 0 1.045-.064 1.525-.192s.896-.269 1.25-.421v-.877zm-6.021-1.302a3.134 3.134 0 0 1-.754.668c-.286.183-.65.271-1.094.271-.419 0-.771-.139-1.057-.42-.286-.282-.429-.738-.429-1.364 0-.475.083-.887.253-1.238.169-.349.403-.638.701-.862a5.406 5.406 0 0 1 1.087-.622c.443-.197.89-.372 1.342-.525l-.049 4.092z"/></svg>