<svg xmlns="http://www.w3.org/2000/svg" width="42" height="47" viewBox="0 0 259.61374 290.19376"><defs><clipPath id="a"><path d="M0 232.155h207.691V0H0v232.155z"/></clipPath></defs><g clip-path="url(#a)" transform="matrix(1.25 0 0 -1.25 0 290.194)"><path d="M69.722 89.571c7.865 0 14.24-6.376 14.24-14.24v-61.09C83.963 6.374 77.588 0 69.723 0c-7.864 0-14.24 6.374-14.24 14.24v61.09c0 7.864 6.376 14.24 14.24 14.24" fill="#a4c639"/><path d="M39.21 163.02a18.863 18.863 0 0 1-.087-1.64V68.824c0-9.954 7.879-17.973 17.66-17.973h94.124c9.783 0 17.66 8.02 17.66 17.973v92.556c0 .552-.018 1.1-.065 1.64H39.21z" fill="#a4c639"/><path d="M137.97 89.571c7.865 0 14.24-6.376 14.24-14.24v-61.09c0-7.866-6.375-14.24-14.24-14.24-7.864 0-14.24 6.374-14.24 14.24v61.09c0 7.864 6.376 14.24 14.24 14.24m-123.729 65.21c7.864 0 14.24-6.376 14.24-14.24V79.45c0-7.866-6.376-14.242-14.24-14.242-7.865 0-14.24 6.376-14.24 14.241v61.09c0 7.865 6.375 14.241 14.24 14.241m179.21.001c7.864 0 14.24-6.376 14.24-14.24V79.45c0-7.866-6.376-14.242-14.24-14.242-7.865 0-14.24 6.376-14.24 14.241v61.09c0 7.865 6.375 14.241 14.24 14.241" fill="#a4c639"/><path d="M44.58 230.655l15.022-26.02m103.51 26.02l-15.023-26.02" fill="none" stroke="#a4c639" stroke-width="3" stroke-linecap="round" stroke-linejoin="round"/><path d="M139.71 198.577c.013-3.974-3.276-7.204-7.346-7.216-4.068-.01-7.376 3.202-7.387 7.176v.04c-.011 3.975 3.278 7.205 7.346 7.216 4.069.012 7.376-3.2 7.388-7.176v-.04zm-54.995 0c.012-3.974-3.277-7.204-7.347-7.216-4.068-.01-7.376 3.202-7.387 7.176v.04c-.011 3.975 3.278 7.205 7.346 7.216 4.069.012 7.376-3.2 7.388-7.176v-.04zm26.287 29.335H96.69c-31.853-3.072-56.667-26.384-57.063-54.813h128.438c-.397 28.43-25.21 51.741-57.063 54.813" fill="#a4c639"/></g></svg>