<svg version="1" xmlns="http://www.w3.org/2000/svg" width="26.096" height="33.803" viewBox="0 0 26.096 33.803"><g fill="#d22856"><path d="M13.047 0L0 1.456v24.475l13.047 7.835v.037l13.049-7.872V1.557L13.047 0zm10.99 24.745l-10.989 6.622v-7.385l-6.369-2.858v-.021l6.373-2.816v-.02h.001v.011l6.366 2.814v-.006l.01.006v-1.234l-6.366-2.813-.003.003-.007-.003v.011h-.001v-.003L6.679 19.87v-1.235l5.848-2.584-1.385-.622-4.463 1.973v-1.234l3.077-1.36-1.385-.622-1.692.748V13.7l.306-.135-3.73-1.674 9.793-4.248V2.084l10.989 1.321v21.34z"/><path d="M19.428 17.389l-4.47-1.975-1.388.621 5.858 2.589zm0-2.468l-1.694-.749-1.388.621 3.082 1.362z"/></g></svg>