<?xml version="1.0" encoding="UTF-8" standalone="no"?>
<!-- Created with Inkscape (http://www.inkscape.org/) -->

<svg
   xmlns:dc="http://purl.org/dc/elements/1.1/"
   xmlns:cc="http://creativecommons.org/ns#"
   xmlns:rdf="http://www.w3.org/1999/02/22-rdf-syntax-ns#"
   xmlns:svg="http://www.w3.org/2000/svg"
   xmlns="http://www.w3.org/2000/svg"
   xmlns:sodipodi="http://sodipodi.sourceforge.net/DTD/sodipodi-0.dtd"
   xmlns:inkscape="http://www.inkscape.org/namespaces/inkscape"
   id="svg2"
   version="1.1"
   inkscape:version="0.91 r13725"
   xml:space="preserve"
   width="42"
   height="47"
   viewBox="0 0 259.61374 290.19376"
   sodipodi:docname="logo__android.svg"><metadata
     id="metadata8"><rdf:RDF><cc:Work
         rdf:about=""><dc:format>image/svg+xml</dc:format><dc:type
           rdf:resource="http://purl.org/dc/dcmitype/StillImage" /><dc:title></dc:title></cc:Work></rdf:RDF></metadata><defs
     id="defs6"><clipPath
       clipPathUnits="userSpaceOnUse"
       id="clipPath16"><path
         d="m 0,232.155 207.691,0 L 207.691,0 0,0 0,232.155 Z"
         id="path18"
         inkscape:connector-curvature="0" /></clipPath></defs><sodipodi:namedview
     pagecolor="#ffffff"
     bordercolor="#666666"
     borderopacity="1"
     objecttolerance="10"
     gridtolerance="10"
     guidetolerance="10"
     inkscape:pageopacity="0"
     inkscape:pageshadow="2"
     inkscape:window-width="776"
     inkscape:window-height="480"
     id="namedview4"
     showgrid="false"
     inkscape:zoom="0.81324975"
     inkscape:cx="-23.282633"
     inkscape:cy="145.09688"
     inkscape:window-x="0"
     inkscape:window-y="0"
     inkscape:window-maximized="0"
     inkscape:current-layer="g10" /><g
     id="g10"
     inkscape:groupmode="layer"
     inkscape:label="Vector Smart Object2"
     transform="matrix(1.25,0,0,-1.25,0,290.19375)"><g
       id="g12"><g
         id="g14"
         clip-path="url(#clipPath16)"><g
           id="g20"
           transform="translate(69.7217,89.5713)"><path
             d="m 0,0 0,0 c 7.865,0 14.241,-6.376 14.241,-14.24 l 0,-61.091 c 0,-7.865 -6.376,-14.24 -14.241,-14.24 -7.864,0 -14.24,6.375 -14.24,14.24 l 0,61.091 C -14.24,-6.376 -7.864,0 0,0"
             style="fill:#a4c639;fill-opacity:1;fill-rule:nonzero;stroke:none"
             id="path22"
             inkscape:connector-curvature="0" /></g><g
           id="g24"
           transform="translate(39.2109,163.0195)"><path
             d="m 0,0 c -0.047,-0.54 -0.088,-1.086 -0.088,-1.639 l 0,-92.556 c 0,-9.954 7.879,-17.973 17.66,-17.973 l 94.124,0 c 9.783,0 17.661,8.019 17.661,17.973 l 0,92.556 c 0,0.552 -0.019,1.1 -0.066,1.639 L 0,0 Z"
             style="fill:#a4c639;fill-opacity:1;fill-rule:nonzero;stroke:none"
             id="path26"
             inkscape:connector-curvature="0" /></g><g
           id="g28"
           transform="translate(137.9697,89.5713)"><path
             d="m 0,0 0,0 c 7.865,0 14.241,-6.376 14.241,-14.24 l 0,-61.091 c 0,-7.865 -6.376,-14.24 -14.241,-14.24 -7.864,0 -14.24,6.375 -14.24,14.24 l 0,61.091 C -14.24,-6.376 -7.864,0 0,0"
             style="fill:#a4c639;fill-opacity:1;fill-rule:nonzero;stroke:none"
             id="path30"
             inkscape:connector-curvature="0" /></g><g
           id="g32"
           transform="translate(14.2412,154.7813)"><path
             d="m 0,0 0,0 c 7.864,0 14.24,-6.376 14.24,-14.241 l 0,-61.09 c 0,-7.865 -6.376,-14.241 -14.24,-14.241 -7.865,0 -14.241,6.376 -14.241,14.241 l 0,61.09 C -14.241,-6.376 -7.865,0 0,0"
             style="fill:#a4c639;fill-opacity:1;fill-rule:nonzero;stroke:none"
             id="path34"
             inkscape:connector-curvature="0" /></g><g
           id="g36"
           transform="translate(193.4512,154.7813)"><path
             d="m 0,0 0,0 c 7.864,0 14.24,-6.376 14.24,-14.241 l 0,-61.09 c 0,-7.865 -6.376,-14.241 -14.24,-14.241 -7.865,0 -14.241,6.376 -14.241,14.241 l 0,61.09 C -14.241,-6.376 -7.865,0 0,0"
             style="fill:#a4c639;fill-opacity:1;fill-rule:nonzero;stroke:none"
             id="path38"
             inkscape:connector-curvature="0" /></g><g
           id="g40"
           transform="translate(44.5801,230.6553)"><path
             d="M 0,0 15.022,-26.021"
             style="fill:none;stroke:#a4c639;stroke-width:3;stroke-linecap:round;stroke-linejoin:round;stroke-miterlimit:4;stroke-dasharray:none;stroke-opacity:1"
             id="path42"
             inkscape:connector-curvature="0" /></g><g
           id="g44"
           transform="translate(163.1123,230.6553)"><path
             d="M 0,0 -15.023,-26.021"
             style="fill:none;stroke:#a4c639;stroke-width:3;stroke-linecap:round;stroke-linejoin:round;stroke-miterlimit:4;stroke-dasharray:none;stroke-opacity:1"
             id="path46"
             inkscape:connector-curvature="0" /></g><g
           id="g48"
           transform="translate(139.7109,198.5771)"><path
             d="m 0,0 c 0.012,-3.974 -3.277,-7.204 -7.347,-7.216 -4.068,-0.011 -7.376,3.202 -7.387,7.176 l 0,0.04 c -0.011,3.975 3.278,7.205 7.346,7.216 C -3.319,7.228 -0.012,4.015 0,0.04 L 0,0 Z m -54.996,0 c 0.012,-3.974 -3.277,-7.204 -7.347,-7.216 -4.068,-0.011 -7.376,3.202 -7.387,7.176 l 0,0.04 c -0.011,3.975 3.278,7.205 7.346,7.216 4.069,0.012 7.376,-3.201 7.388,-7.176 l 0,-0.04 z m 26.287,29.335 -14.312,0 C -74.874,26.263 -99.688,2.951 -100.084,-25.478 l 128.438,0 C 27.957,2.951 3.145,26.263 -28.709,29.335"
             style="fill:#a4c639;fill-opacity:1;fill-rule:nonzero;stroke:none"
             id="path50"
             inkscape:connector-curvature="0" /></g></g></g></g></svg>